# xmcd CD database file
#
# Track frame offsets:
#	150
#	17600
#	34270
#	49730
#	66007
#	81140
#	94477
#	108942
#	125817
#	142570
#	161167
#
# Disc length: 2372 seconds
#
# Revision: 0
# Processed by: cddbd v1.5.1PL0 Copyright (c) Steve Scherf et al.
# Submitted via: CDex 1.51
#
DISCID=8e09420b
DTITLE=Carlynne DeVine - Front Porch
DYEAR=2002
DGENRE=Country
TTITLE0=Sittin On A Goldmine
TTITLE1=What Kind Of A Woman
TTITLE2=If You Don't Know By Now
TTITLE3=Country Song
TTITLE4=Tenderly
TTITLE5=Until It Came From You
TTITLE6=If You Let Me Love You
TTITLE7=The Boy Back Home
TTITLE8=Five Years From Now
TTITLE9=Lightly
TTITLE10=Front Porch
EXTD=YEAR: 2002
EXTT0=
EXTT1=
EXTT2=
EXTT3=
EXTT4=
EXTT5=
EXTT6=
EXTT7=
EXTT8=
EXTT9=
EXTT10=
PLAYORDER=
